<svg width="102" height="102" viewBox="0 0 102 102" fill="none" xmlns="http://www.w3.org/2000/svg">
<path d="M99.8176 33.8108C100.753 33.8108 101.518 33.0456 101.518 32.1103V25.3368C101.518 24.4015 100.753 23.6363 99.8176 23.6363H86.2989V18.5633C86.2989 17.628 85.5337 16.8628 84.5984 16.8628H67.6787C66.7435 16.8628 65.9783 17.628 65.9783 18.5633V23.6363H35.5398V18.5633C35.5398 17.628 34.7746 16.8628 33.8394 16.8628H16.9197C15.9844 16.8628 15.2192 17.628 15.2192 18.5633V23.6363H1.70047C0.765212 23.6363 0 24.4015 0 25.3368V32.1103C0 33.0456 0.765212 33.8108 1.70047 33.8108H8.47401V91.2867H1.70047C0.765212 91.2867 0 92.0519 0 92.9872V99.7607C0 100.696 0.765212 101.461 1.70047 101.461H99.761C100.696 101.461 101.461 100.696 101.461 99.7607V92.9872C101.461 92.0519 100.696 91.2867 99.761 91.2867H92.9874V33.8108H99.761H99.8176ZM69.3792 20.2921H82.898V23.6647H69.3792V20.2921ZM18.6485 20.2921H32.1672V23.6647H18.6485V20.2921ZM3.42928 27.0656H98.1172V30.4382H3.42928V27.0656ZM98.1172 98.0886H3.42928V94.716H98.1172V98.0886ZM89.6715 91.3151H11.9033V33.8392H89.6715V91.3151Z" fill="#6FDE74"/>
<path d="M74.4519 87.9143H84.5981C85.5333 87.9143 86.2985 87.1491 86.2985 86.2138V76.0677C86.2985 75.1324 85.5333 74.3672 84.5981 74.3672C83.6628 74.3672 82.8976 75.1324 82.8976 76.0677V84.5133H74.4519C73.5167 84.5133 72.7515 85.2785 72.7515 86.2138C72.7515 87.1491 73.5167 87.9143 74.4519 87.9143Z" fill="#6FDE74"/>
<path d="M16.9768 50.7028C17.9121 50.7028 18.6773 49.9376 18.6773 49.0024V40.5567H27.123C28.0582 40.5567 28.8235 39.7915 28.8235 38.8562C28.8235 37.921 28.0582 37.1558 27.123 37.1558H16.9768C16.0416 37.1558 15.2764 37.921 15.2764 38.8562V49.0024C15.2764 49.9376 16.0416 50.7028 16.9768 50.7028Z" fill="#6FDE74"/>
<path d="M23.7503 13.5187H27.1229V8.44567H32.196V5.07307H27.1229V0H23.7503V5.07307H18.6772V8.44567H23.7503V13.5187Z" fill="#6FDE74"/>
<path d="M69.3792 8.44584H82.9262V5.07324H69.3792V8.44584Z" fill="#6FDE74"/>
<path d="M42.6819 87.7728L67.7922 55.804H56.6541L63.4277 38.8843H42.7386L35.0015 65.9501H47.0181L42.6536 87.7728H42.6819ZM39.5077 62.5492L45.2893 42.2569H58.4396L51.6661 59.1766H60.8203L48.7469 74.5375L51.1559 62.5492H39.5077Z" fill="#6FDE74"/>
</svg>
