<svg width="81" height="102" viewBox="0 0 81 102" fill="none" xmlns="http://www.w3.org/2000/svg">
<path d="M15.3893 22.1061H15.4176C21.511 22.1061 26.4423 17.1464 26.4423 11.0531C26.4423 4.95971 21.4826 0 15.4176 0H15.3893H15.3609C9.26757 0 4.30786 4.95971 4.30786 11.0531C4.30786 17.1464 9.26757 22.1061 15.3609 22.1061H15.3893ZM22.6446 11.0531C22.6446 15.0775 19.3854 18.3367 15.3893 18.3651C11.3932 18.3367 8.13392 15.0775 8.13392 11.0531C8.13392 7.02861 11.3932 3.76938 15.3893 3.74104C19.3854 3.76938 22.6446 7.02861 22.6446 11.0531Z" fill="#6FDE74"/>
<path d="M9.09769 61.4443C8.07741 61.4443 7.22717 62.2946 7.22717 63.3149V99.5349C7.22717 100.555 8.07741 101.405 9.09769 101.405C10.118 101.405 10.9682 100.584 10.9682 99.5349V63.3149C10.9682 62.2946 10.1463 61.4443 9.09769 61.4443Z" fill="#6FDE74"/>
<path d="M21.7094 61.4443C20.6891 61.4443 19.8389 62.2946 19.8389 63.3149V99.5349C19.8389 100.555 20.6891 101.405 21.7094 101.405C22.7297 101.405 23.5799 100.584 23.5799 99.5349V63.3149C23.5799 62.2946 22.758 61.4443 21.7094 61.4443Z" fill="#6FDE74"/>
<path d="M69.9177 27.2646H60.6218C58.808 27.2646 55.6337 28.4833 47.2448 38.1193C44.4673 41.3219 41.8883 44.5244 40.3295 46.5083C38.7991 44.5244 36.22 41.3219 33.4143 38.1193C25.0253 28.5117 21.8511 27.2646 20.0372 27.2646H10.7413C4.818 27.2646 0 32.0826 0 38.006V64.1932C0 65.2135 0.850235 66.0637 1.87052 66.0637C2.8908 66.0637 3.74104 65.2135 3.74104 64.1932V38.006C3.74104 34.1516 6.88691 31.0057 10.7413 31.0057H20.0372C20.1222 31.0057 22.4179 31.2041 30.6368 40.6133C34.973 45.5731 38.7707 50.6178 38.8274 50.6745C39.1675 51.1563 39.7343 51.4113 40.3295 51.4113C40.9247 51.4113 41.4632 51.1279 41.8316 50.6745C41.8599 50.6178 45.6576 45.6014 49.9938 40.6417C58.2411 31.2041 60.5368 31.0057 60.6218 31.0057H69.9177C73.7721 31.0057 76.918 34.1516 76.918 38.006V64.1932C76.918 65.2135 77.7682 66.0637 78.7885 66.0637C79.8088 66.0637 80.659 65.2135 80.659 64.1932V38.006C80.659 32.0826 75.841 27.2646 69.9177 27.2646Z" fill="#6FDE74"/>
<path d="M71.5617 61.4443C70.5414 61.4443 69.6912 62.2946 69.6912 63.3149V99.5349C69.6912 100.555 70.5131 101.405 71.5617 101.405C72.582 101.405 73.4322 100.584 73.4322 99.5349V63.3149C73.4322 62.2946 72.582 61.4443 71.5617 61.4443Z" fill="#6FDE74"/>
<path d="M58.9501 61.4443C57.9298 61.4443 57.0796 62.2946 57.0796 63.3149V99.5349C57.0796 100.555 57.9298 101.405 58.9501 101.405C59.9704 101.405 60.8206 100.584 60.8206 99.5349V63.3149C60.8206 62.2946 59.9704 61.4443 58.9501 61.4443Z" fill="#6FDE74"/>
<path d="M65.2694 22.1061H65.2977C71.3911 22.1061 76.3224 17.1464 76.3224 11.0531C76.3224 4.95971 71.3627 0 65.2977 0H65.2694H65.241C59.1477 0 54.2163 4.95971 54.2163 11.0531C54.2163 17.1464 59.176 22.1061 65.241 22.1061H65.2694ZM72.5247 11.0531C72.5247 15.0775 69.2655 18.3367 65.2694 18.3651C61.2733 18.3367 58.014 15.0775 58.014 11.0531C58.014 7.02861 61.2733 3.76938 65.2694 3.74104C69.2655 3.76938 72.5247 7.02861 72.5247 11.0531Z" fill="#6FDE74"/>
<path d="M35.0582 24.4023C35.0582 23.3821 34.2079 22.5318 33.1877 22.5318C32.1674 22.5318 31.3171 23.3821 31.3171 24.4023C31.3171 28.0584 34.378 31.0909 38.4591 31.8277V32.9897C38.4591 34.01 39.281 34.8602 40.3296 34.8602C41.3499 34.8602 42.2002 34.0383 42.2002 32.9897V31.8277C46.2813 31.0909 49.3421 28.0584 49.3421 24.4023C49.3421 20.7463 46.2813 17.7138 42.2002 16.977V9.38152C44.184 9.94834 45.6011 11.3654 45.6011 12.9808C45.6011 14.0011 46.4513 14.8514 47.4716 14.8514C48.4919 14.8514 49.3421 14.0295 49.3421 12.9808C49.3421 9.32483 46.2813 6.29233 42.2002 5.55546V4.39347C42.2002 3.37318 41.3499 2.52295 40.3296 2.52295C39.3094 2.52295 38.4591 3.34484 38.4591 4.39347V5.55546C34.378 6.29233 31.3171 9.32483 31.3171 12.9808C31.3171 16.6369 34.378 19.6694 38.4591 20.4062V28.0017C36.4752 27.4348 35.0582 26.0178 35.0582 24.4023ZM45.6011 24.4023C45.6011 26.0178 44.1557 27.4348 42.2002 28.0017V20.8314C44.184 21.3982 45.6011 22.8152 45.6011 24.4307V24.4023ZM35.0582 12.9808C35.0582 11.3654 36.5036 9.94834 38.4591 9.38152V16.5518C36.4752 15.985 35.0582 14.568 35.0582 12.9525V12.9808Z" fill="#6FDE74"/>
</svg>
