<svg width="104" height="102" viewBox="0 0 104 102" fill="none" xmlns="http://www.w3.org/2000/svg">
<path d="M6.5542 90.5378C6.5542 93.2048 8.7389 95.3895 11.4059 95.3895C14.073 95.3895 16.2577 93.2048 16.2577 90.5378C16.2577 88.807 15.3214 87.2182 13.846 86.3386C13.1083 85.913 12.2855 85.686 11.4343 85.686C8.76727 85.686 6.58257 87.8707 6.58257 90.5378H6.5542ZM13.1367 90.5378C13.1367 91.5024 12.3422 92.2969 11.3776 92.2969C10.4129 92.2969 9.61846 91.5024 9.61846 90.5378C9.61846 89.5731 10.4129 88.7787 11.3776 88.7787C11.6897 88.7787 12.0018 88.8638 12.2571 89.0056C12.7962 89.3177 13.1367 89.9136 13.1367 90.5378Z" fill="#6FDE74"/>
<path d="M24.5992 95.3895C27.2663 95.3895 29.451 93.2048 29.451 90.5378C29.451 88.807 28.5147 87.2182 27.0393 86.3386C26.3016 85.913 25.4788 85.686 24.6276 85.686C21.9606 85.686 19.7759 87.8707 19.7759 90.5378C19.7759 93.2048 21.9606 95.3895 24.6276 95.3895H24.5992ZM24.5992 88.807C24.9113 88.807 25.2234 88.8922 25.4788 89.034C26.0179 89.3461 26.3584 89.9419 26.3584 90.5661C26.3584 91.5308 25.5639 92.3253 24.5992 92.3253C23.6346 92.3253 22.8401 91.5308 22.8401 90.5661C22.8401 89.6015 23.6346 88.807 24.5992 88.807Z" fill="#6FDE74"/>
<path d="M37.7928 95.3895C40.4599 95.3895 42.6446 93.2048 42.6446 90.5378C42.6446 88.807 41.7083 87.2182 40.2329 86.3386C39.4952 85.913 38.6724 85.686 37.8212 85.686C35.1542 85.686 32.9695 87.8707 32.9695 90.5378C32.9695 93.2048 35.1542 95.3895 37.8212 95.3895H37.7928ZM37.7928 88.807C38.1049 88.807 38.417 88.8922 38.6724 89.034C39.2115 89.3461 39.552 89.9419 39.552 90.5661C39.552 91.5308 38.7575 92.3253 37.7928 92.3253C36.8282 92.3253 36.0337 91.5308 36.0337 90.5661C36.0337 89.6015 36.8282 88.807 37.7928 88.807Z" fill="#6FDE74"/>
<path d="M50.9574 95.3895C53.6244 95.3895 55.8091 93.2048 55.8091 90.5378C55.8091 88.807 54.8728 87.2182 53.3975 86.3386C52.6598 85.913 51.837 85.686 50.9858 85.686C48.3187 85.686 46.134 87.8707 46.134 90.5378C46.134 93.2048 48.3187 95.3895 50.9858 95.3895H50.9574ZM50.9574 88.807C51.2695 88.807 51.5816 88.8922 51.837 89.034C52.376 89.3461 52.7165 89.9419 52.7165 90.5661C52.7165 91.5308 51.9221 92.3253 50.9574 92.3253C49.9927 92.3253 49.1983 91.5308 49.1983 90.5661C49.1983 89.6015 49.9927 88.807 50.9574 88.807Z" fill="#6FDE74"/>
<path d="M13.0517 64.0657H14.6973C15.5485 64.0657 16.2294 63.3848 16.2294 62.5336C16.2294 61.6824 15.5485 61.0015 14.6973 61.0015H13.0517C12.2005 61.0015 11.5195 61.6824 11.5195 62.5336C11.5195 63.3848 12.2005 64.0657 13.0517 64.0657Z" fill="#6FDE74"/>
<path d="M13.0517 69.0022H14.6973C15.5485 69.0022 16.2294 68.3213 16.2294 67.4701C16.2294 66.6189 15.5485 65.938 14.6973 65.938H13.0517C12.2005 65.938 11.5195 66.6189 11.5195 67.4701C11.5195 68.3213 12.2005 69.0022 13.0517 69.0022Z" fill="#6FDE74"/>
<path d="M102.965 53.511L76.6915 3.85869C75.6701 1.58887 73.4003 0 70.7616 0C68.5485 0 66.5908 1.10654 65.4275 2.8089L40.2893 36.3171C39.9488 36.2604 39.58 36.2604 39.2395 36.2604H27.9188C23.4359 36.2604 19.7758 39.9204 19.7758 44.4033V54.3905H9.7886C7.12156 54.3905 4.93686 56.5752 4.93686 59.2423V70.79C4.93686 73.457 7.12156 75.6417 9.7886 75.6417H23.067V79.1316H11.4342C5.13547 79.1316 0 84.267 0 90.5658C0 96.8645 5.13547 102 11.4342 102H50.9858C57.2846 102 62.42 96.8645 62.42 90.5658C62.42 84.267 57.2846 79.1316 50.9858 79.1316H39.353V75.6417H52.6314C53.4826 75.6417 54.1636 74.9608 54.1636 74.1096V69.0592H55.9227C55.951 69.0592 55.951 69.0592 55.9794 69.0592C56.0078 69.0592 56.0362 69.0592 56.0645 69.0592C56.0929 69.0592 56.0929 69.0592 56.1213 69.0592C56.1497 69.0592 56.178 69.0592 56.2348 69.0309C56.2631 69.0309 56.2915 69.0025 56.3199 69.0025C56.3483 69.0025 56.3766 69.0025 56.3766 68.9741C56.405 68.9741 56.405 68.9741 56.4334 68.9458C56.4618 68.9458 56.4901 68.9174 56.5185 68.9174C56.6036 68.889 56.6887 68.8323 56.7739 68.7755C56.8022 68.7755 56.8022 68.7471 56.8306 68.7188C56.859 68.6904 56.859 68.6904 56.8873 68.662C56.9157 68.6337 56.9157 68.6337 56.9441 68.6053C56.9725 68.5769 56.9725 68.5769 57.0008 68.5485C57.0292 68.5485 57.0292 68.5202 57.0292 68.4918C57.0576 68.4634 57.0576 68.4634 57.086 68.4351C57.086 68.4351 57.086 68.4067 57.1143 68.4067C57.1427 68.3783 57.1711 68.3499 57.1711 68.3216C57.1711 68.2932 57.1994 68.2932 57.1994 68.2648C57.2278 68.2364 57.2278 68.2081 57.2562 68.1797C57.3413 68.0095 57.3981 67.8392 57.4264 67.669C57.4264 67.6122 57.4548 67.5271 57.4548 67.442V61.5405C57.4548 58.6181 56.6036 55.8092 54.9864 53.3691L52.5463 49.709L69.5132 21.1944L94.5947 58.3344C95.1905 59.3274 96.1268 60.1218 97.2334 60.4907V63.0442L96.7794 61.9093C96.6376 61.5405 96.3255 61.2284 95.9566 61.0581C95.5878 60.8879 95.1622 60.8879 94.765 61.0581L73.6556 69.5416L70.0239 66.5341C69.3714 65.995 68.3783 66.0801 67.8392 66.7327C67.3001 67.3853 67.3853 68.3783 68.0378 68.9174L79.4437 78.3088C81.5149 80.0395 84.0968 80.9191 86.7071 80.9191C88.1541 80.9191 89.6011 80.6353 90.963 80.0962L96.212 77.9967C98.4818 77.0887 99.9572 75.0175 100.241 72.7761C100.269 72.6626 100.298 72.5207 100.298 72.3789V60.4907C102.199 59.8381 103.589 58.0223 103.589 55.8943C103.589 55.0147 103.362 54.1919 102.936 53.4542L102.965 53.511ZM19.7758 72.5207H9.7886C8.82392 72.5207 8.02949 71.7263 8.02949 70.7616V59.2139C8.02949 58.2492 8.82392 57.4548 9.7886 57.4548H19.7758V72.4924V72.5207ZM95.1054 75.1594L89.8565 77.259C87.0192 78.3939 83.7847 77.9115 81.4298 75.9538L76.3794 71.783L94.5096 64.4912L97.0064 70.7049C97.7157 72.4356 96.8645 74.4217 95.1054 75.131V75.1594ZM70.7616 3.06426C72.0384 3.06426 73.1449 3.77357 73.7124 4.79499C73.7408 4.85174 73.7691 4.90848 73.7975 4.96523L73.8826 5.16384C74.0528 5.56106 74.138 5.98665 74.138 6.44061C74.138 7.09318 73.9677 7.68901 73.6556 8.19972C73.6556 8.2281 73.6273 8.2281 73.6273 8.25647L73.5705 8.36996C72.9463 9.27789 71.9249 9.87371 70.7616 9.87371C68.889 9.87371 67.3569 8.34159 67.3569 6.46898C67.3569 4.59638 68.889 3.06426 70.7616 3.06426ZM50.9858 82.1675C55.5822 82.1675 59.3274 85.9127 59.3274 90.509C59.3274 95.1054 55.5822 98.8506 50.9858 98.8506H11.4342C6.83783 98.8506 3.09263 95.1054 3.09263 90.509C3.09263 85.9127 6.83783 82.1675 11.4342 82.1675H50.9858ZM26.1597 79.0748V75.585H36.2604V79.0748H26.1597ZM51.0993 72.4924H22.8684V55.9227V44.4033C22.8684 42.1619 24.3438 40.2609 26.3583 39.6083V61.7958C26.3583 63.6401 27.4364 65.314 29.1104 66.0517C33.565 68.0378 38.2748 69.0309 43.1266 69.0309H51.0709V72.5207L51.0993 72.4924ZM54.3905 61.5405V65.8815H43.1549C41.3107 65.8815 39.4949 65.7113 37.7074 65.3992V44.3466C37.7074 43.4954 37.0264 42.8145 36.1752 42.8145C35.3241 42.8145 34.6431 43.4954 34.6431 44.3466V64.6898C33.2245 64.2926 31.8058 63.7819 30.4156 63.1577C29.8481 62.9024 29.4793 62.3349 29.4793 61.7391V39.2962H39.2395C40.9419 39.2962 42.5024 40.1474 43.4387 41.5377L52.4612 55.0715C53.738 57.0008 54.4189 59.2139 54.4189 61.5405H54.3905ZM50.6453 46.8434L45.9922 39.8353C45.3113 38.7855 44.4033 37.9627 43.3535 37.3385L64.7466 8.82392C65.7113 11.2356 68.0378 12.938 70.79 12.938C70.8184 12.938 70.8467 12.938 70.8751 12.938L50.6737 46.8434H50.6453ZM94.8217 53.1138L71.2723 18.2437L76.2092 9.95883C76.2659 9.90209 76.2943 9.81697 76.3227 9.76022L98.1981 51.0993C96.7794 51.2695 95.5594 52.0356 94.7933 53.1421L94.8217 53.1138ZM98.7939 57.625C97.8292 57.625 97.0348 56.8306 97.0348 55.8659C97.0348 54.9013 97.8292 54.1068 98.7939 54.1068C99.7586 54.1068 100.553 54.9013 100.553 55.8659C100.553 56.8306 99.7586 57.625 98.7939 57.625Z" fill="#6FDE74"/>
</svg>
