<svg width="117" height="102" viewBox="0 0 117 102" fill="none" xmlns="http://www.w3.org/2000/svg">
<path d="M6.7452 39.0541H12.3851L13.9439 98.4005H5.52653L6.77354 39.0541H6.7452ZM11.875 20.3772L12.1017 28.8796H6.94359L7.11364 20.3772H11.875ZM12.2717 35.6815H6.80188L6.88691 32.2805H12.1867L12.2717 35.6815ZM83.6065 88.3394H105.684V98.5139L83.6065 98.4855V88.3111V88.3394ZM30.5801 20.3772L31.0053 28.8796H25.6204L25.7905 20.3772H30.5801ZM25.4504 35.6815L25.5354 32.2805H31.1753L31.3453 35.6815H25.4787H25.4504ZM100.583 50.9857H92.0805V42.4834H88.6796V50.9857H78.4767V42.4834H75.0758V50.9857H64.873V42.4834H61.472V50.9857H51.2692V42.4834H47.8683V50.9857H37.6654V61.1885H41.0664V54.3867H112.429V98.5706H109.029V84.9951H80.1489V98.5422L32.564 98.4855V67.9904H109.029V64.5895H29.1631V98.4855H24.0333L25.3087 39.1108H31.402L32.479 61.2736L35.8799 61.1035L33.726 17.0046H22.3612L20.604 98.4572H17.1748L15.0492 17.0046H3.65601L1.95554 98.4288H0V101.83L115.774 101.971V50.9857H100.469H100.583Z" fill="#6FDE74"/>
<path d="M44.5522 61.1606H47.9532V57.7596H44.5522V61.1606Z" fill="#6FDE74"/>
<path d="M51.3547 61.1606H54.7557V57.7596H51.3547V61.1606Z" fill="#6FDE74"/>
<path d="M58.1562 61.1606H61.5572V57.7596H58.1562V61.1606Z" fill="#6FDE74"/>
<path d="M64.958 61.1606H68.3306V57.7596H64.958V61.1606Z" fill="#6FDE74"/>
<path d="M71.7317 61.1606H75.1326V57.7596H71.7317V61.1606Z" fill="#6FDE74"/>
<path d="M78.5332 61.1606H81.9341V57.7596H78.5332V61.1606Z" fill="#6FDE74"/>
<path d="M85.335 61.1606H88.7359V57.7596H85.335V61.1606Z" fill="#6FDE74"/>
<path d="M92.1372 61.1606H95.5381V57.7596H92.1372V61.1606Z" fill="#6FDE74"/>
<path d="M98.939 61.1606H102.312V57.7596H98.939V61.1606Z" fill="#6FDE74"/>
<path d="M105.713 61.1606H109.114V57.7596H105.713V61.1606Z" fill="#6FDE74"/>
<path d="M36.0498 91.7401H39.4507V71.3628H36.0498V91.7401Z" fill="#6FDE74"/>
<path d="M44.5522 91.7401H47.9532V71.3628H44.5522V91.7401Z" fill="#6FDE74"/>
<path d="M53.0547 91.7401H56.4556V71.3628H53.0547V91.7401Z" fill="#6FDE74"/>
<path d="M61.5571 91.7401H64.9581V71.3628H61.5571V91.7401Z" fill="#6FDE74"/>
<path d="M70.0312 91.7401H73.4322V71.3628H70.0312V91.7401Z" fill="#6FDE74"/>
<path d="M83.6351 74.7364H104.012V78.1373H83.6351V74.7364ZM107.413 81.5383V71.3354H80.2341V81.5383H107.413Z" fill="#6FDE74"/>
<path d="M67.4802 27.1792C72.6383 27.1792 76.8328 22.9847 76.8328 17.8266C76.8328 16.4379 77.9665 15.3042 79.3552 15.3042H84.4849C86.8372 15.3042 88.7361 13.4054 88.7361 11.0531C88.7361 10.5713 89.1045 10.2028 89.5863 10.2028H101.065C103.87 10.2028 106.166 7.90719 106.166 5.10141C106.166 4.16615 106.931 3.40094 107.866 3.40094H116.17V0H107.866C105.061 0 102.765 2.29564 102.765 5.10141C102.765 6.03667 102 6.80188 101.065 6.80188H89.5863C87.234 6.80188 85.3352 8.70074 85.3352 11.0531C85.3352 11.5349 84.9667 11.9033 84.4849 11.9033H79.3552C76.0959 11.9033 73.4319 14.5674 73.4319 17.8266C73.4319 21.1142 70.7678 23.8066 67.4519 23.8066H63.229C54.8117 23.8066 47.9531 30.6652 47.9248 39.0825H51.3257C51.3257 36.2767 53.6214 33.9811 56.4272 33.9811H57.5891C59.7714 33.9811 61.5286 35.7382 61.5286 37.9205V39.0825H64.9295C64.9295 37.212 66.4599 35.6815 68.3305 35.6815H71.7314C73.6019 35.6815 75.1323 37.212 75.1323 39.0825H78.5333C78.5333 37.212 80.0637 35.6815 81.9342 35.6815H85.3352C87.2057 35.6815 88.7361 37.212 88.7361 39.0825H92.137C92.137 37.212 93.6675 35.6815 95.538 35.6815H95.9631C99.7041 35.6815 102.765 32.6207 102.765 28.8513C102.765 27.6893 103.7 26.7541 104.862 26.7541H105.344C108.377 26.7541 110.842 24.2884 110.842 21.2559V17.9116C110.842 16.0128 112.401 14.454 114.3 14.454H116.17V11.0531H114.3C110.53 11.0531 107.441 14.1423 107.441 17.9116V21.2559C107.441 22.4179 106.506 23.3531 105.344 23.3531H104.862C101.83 23.3531 99.364 25.8188 99.364 28.8797C99.364 30.7502 97.8336 32.2806 95.9631 32.2806H95.538C93.4974 32.2806 91.6836 33.1875 90.4366 34.5762C89.1896 33.1592 87.3757 32.2806 85.3352 32.2806H81.9342C79.8937 32.2806 78.0798 33.1875 76.8328 34.5762C75.5858 33.1592 73.772 32.2806 71.7314 32.2806H68.3305C66.6016 32.2806 65.0145 32.9325 63.7959 34.0094C62.4922 31.9405 60.1965 30.5801 57.5891 30.5801H56.4272C55.8603 30.5801 55.2935 30.6368 54.7267 30.7502C56.8806 28.5396 59.8848 27.1792 63.2007 27.1792H67.4235H67.4802Z" fill="#6FDE74"/>
</svg>
