<svg width="371" height="438" viewBox="0 0 371 438" fill="none" xmlns="http://www.w3.org/2000/svg">
<path d="M366.646 19.3536C366.842 19.5488 367.158 19.5488 367.354 19.3536L370.536 16.1716C370.731 15.9763 370.731 15.6597 370.536 15.4645C370.34 15.2692 370.024 15.2692 369.828 15.4645L367 18.2929L364.172 15.4645C363.976 15.2692 363.66 15.2692 363.464 15.4645C363.269 15.6597 363.269 15.9763 363.464 16.1716L366.646 19.3536ZM366.5 -2.18557e-08L366.5 19L367.5 19L367.5 2.18557e-08L366.5 -2.18557e-08Z" fill="black"/>
<line x1="153.5" y1="438" x2="153.5" y2="2.18557e-08" stroke="#232323"/>
<line x1="153" y1="0.5" x2="368" y2="0.5" stroke="black"/>
<line x1="153" y1="437.5" x2="4.37114e-08" y2="437.5" stroke="black"/>
<line x1="0.5" y1="437" x2="0.499998" y2="402" stroke="black"/>
</svg>
