<svg width="201" height="59" viewBox="0 0 201 59" fill="none" xmlns="http://www.w3.org/2000/svg">
<path fill-rule="evenodd" clip-rule="evenodd" d="M88.0312 32.2274V18.5781H90.199V30.2775H100.604V32.2274H88.0312ZM105.157 32.2274V18.5781H107.324V32.2274H105.157ZM119.898 20.528V32.2274H117.73V20.528H111.443V18.5781H126.184V20.528H119.898ZM129.869 32.2274V18.5781H132.037V24.2111H142.876V18.5781H145.044V32.2274H142.876V26.161H132.037V32.2274H129.869ZM152.197 32.2274V18.5781H154.365V32.2274H152.197ZM163.903 18.5781V30.2775H173.875V18.5781H176.043V28.9776C176.043 30.2775 175.826 31.1441 175.393 31.5774C174.959 32.0107 174.092 32.2274 172.791 32.2274H164.771C163.47 32.2274 162.603 32.0107 162.169 31.5774C161.736 31.1441 161.519 30.2775 161.519 28.9776V18.5781H163.903ZM184.931 21.178C184.931 21.3946 184.931 21.8279 184.931 22.0446C184.931 22.2613 184.931 22.6946 184.931 23.1279V32.2274H182.98V18.5781H184.931L191.434 27.461L197.721 18.5781H199.889V32.2274H197.721V23.1279C197.721 22.9112 197.721 22.6946 197.721 22.2613C197.721 21.8279 197.721 21.3946 197.721 21.178C197.504 21.6113 197.504 21.8279 197.287 22.0446C197.07 22.2613 197.07 22.4779 196.854 22.6946L191.651 30.2775H191.217L185.798 22.9112C185.364 22.0446 185.148 21.6113 184.931 21.178Z" fill="white" stroke="white" stroke-width="0.1417" stroke-miterlimit="22.9256" stroke-linejoin="round"/>
<path fill-rule="evenodd" clip-rule="evenodd" d="M70.4723 2.76235C70.2555 2.97901 69.8219 2.76235 69.6051 2.32904C69.3884 2.11239 69.6051 1.67907 70.0387 1.46242C70.9058 1.24576 71.5561 0.812457 72.4232 0.595803C73.0736 0.379148 73.9407 0.162491 74.3743 0.162491C75.8917 -0.0541637 77.1924 -0.0541637 78.0595 0.162491C78.9266 0.595801 79.3601 1.24577 79.5769 2.11239C79.5769 2.97901 79.3601 3.84562 78.7098 5.14555C77.1924 8.17872 73.0736 12.9451 67.0038 18.5782C66.787 18.7948 66.3535 18.7948 66.1367 18.5782C65.9199 18.3615 65.9199 17.9282 66.1367 17.7115C72.2065 12.0785 76.1085 7.52876 77.6259 4.49559C78.0595 3.62897 78.2763 2.76235 78.2763 2.11239C78.2763 1.67908 78.0595 1.46242 77.6259 1.24577C76.9756 1.02911 76.1085 1.02911 74.591 1.24577C73.9407 1.46242 73.2904 1.46242 72.64 1.67908C71.9897 2.32904 71.1226 2.5457 70.4723 2.76235Z" fill="white"/>
<path fill-rule="evenodd" clip-rule="evenodd" d="M24.7321 48.26C24.9489 48.0434 25.3825 48.2601 25.5992 48.4767C25.816 48.6934 25.5992 49.1267 25.3825 49.3433C21.0469 51.9432 17.1449 53.8931 13.6765 55.4097C10.208 56.9262 7.3899 58.0095 5.22213 58.4428C5.00535 58.4428 4.57181 58.4428 4.35503 58.6595C3.7047 58.6595 3.05436 58.6595 2.18725 58.6595C0.45303 58.2262 -0.847646 56.7096 0.669798 53.6764C1.75369 51.2932 4.35503 48.26 7.82347 44.5769C11.2919 40.8938 15.8442 36.7773 21.2637 32.4442C26.0328 28.5445 31.2355 24.6447 36.4381 20.9615C41.6408 17.2784 47.0602 13.8119 52.0461 10.7787C52.4797 10.5621 53.13 10.5621 53.3468 11.2121C53.5636 11.6454 53.5636 12.2953 52.9132 12.512C47.9273 15.5452 42.5079 19.0116 37.3052 22.6948C32.1026 26.3779 26.8999 30.2777 22.1308 34.1775C16.9281 38.5106 12.3758 42.627 8.90736 46.0935C5.43891 49.56 3.05435 52.5931 1.97046 54.7597C0.453017 57.7929 2.62079 58.0095 4.13824 57.7929C4.35502 57.7929 4.5718 57.7929 4.5718 57.7929C6.73958 57.3596 9.55768 56.4929 12.8093 54.9764C16.4946 52.8098 20.3966 50.6432 24.7321 48.26Z" fill="white"/>
<path fill-rule="evenodd" clip-rule="evenodd" d="M51.179 33.5271L50.3119 44.7932H21.0469V42.8433C21.4804 42.8433 22.1308 42.8433 22.7811 42.6266C23.6482 42.6266 24.0818 42.41 24.5153 42.1933C24.9489 41.9767 25.3824 41.5434 25.5992 41.11C25.816 40.6767 26.0328 40.0268 26.0328 39.3768V33.9604L31.669 29.6273V37.4269C31.669 38.5102 31.669 39.5935 31.8858 40.2434C32.1025 40.8934 32.3193 41.3267 32.7529 41.76C33.1864 41.9767 33.8368 42.1933 34.4871 42.41C35.3542 42.41 36.4381 42.6266 37.9555 42.6266C38.6059 42.6266 39.2562 42.6266 39.9065 42.6266C40.5569 42.6266 41.2072 42.41 41.8575 42.41C42.5079 42.1933 42.9414 42.1933 43.5918 41.9767C44.0253 41.76 44.4589 41.5433 44.6756 41.3267C45.326 40.4601 46.1931 39.3768 47.277 37.6436C48.1441 35.9103 49.0112 34.6104 49.228 33.5271H51.179ZM26.0328 24.6443V12.7282C26.0328 12.0783 26.0328 11.645 25.816 11.2117C25.5992 10.7783 25.1656 10.345 24.5153 10.1284C24.0818 9.91172 23.6482 9.69507 22.7811 9.47842C22.1308 9.26176 21.4804 9.0451 21.0469 9.0451V7.09521H36.8717V9.0451C36.4381 9.0451 35.7878 9.26176 34.9207 9.26176C34.0535 9.47842 33.62 9.47842 33.1864 9.69508C32.5361 9.91173 32.1025 10.345 31.8858 10.7784C31.669 11.2117 31.4522 11.8616 31.4522 12.5116V20.5278L26.0328 24.6443ZM65.7031 44.7932H52.9132V43.0599C53.3467 43.0599 53.7803 43.0599 54.2139 43.0599C54.6474 43.0599 55.081 43.0599 55.2978 42.8433C55.7313 42.6266 56.1649 42.41 56.3816 41.9767C56.5984 41.5434 56.8152 41.11 56.8152 40.4601V24.4276C56.8152 23.7776 56.5984 23.3443 56.3816 22.911C56.1649 22.4777 55.7313 22.0444 55.2978 21.8277C54.8642 21.6111 54.4306 21.3944 53.7803 21.1778C53.13 20.9611 52.4796 20.9611 52.0461 20.9611V19.2279L61.3675 18.5779L61.8011 19.0112V40.2434C61.8011 40.8934 62.0179 41.3267 62.2346 41.76C62.4514 42.1933 62.885 42.41 63.3185 42.6266C63.7521 42.8433 64.1856 42.8433 64.4024 43.0599C64.836 43.0599 65.2695 43.2766 65.7031 43.2766V44.7932Z" fill="white"/>
<path d="M58.9831 11.4285C61.1381 11.4285 62.8851 9.6825 62.8851 7.52871C62.8851 5.37491 61.1381 3.62891 58.9831 3.62891C56.828 3.62891 55.0811 5.37491 55.0811 7.52871C55.0811 9.6825 56.828 11.4285 58.9831 11.4285Z" fill="#3CD044"/>
<path fill-rule="evenodd" clip-rule="evenodd" d="M91.0661 40.2435V44.5766H90.199V40.2435H87.8145V39.5935H93.4507V40.2435H91.0661ZM97.3527 44.7932V39.5935H102.339V40.2435H98.2198V41.7601H100.821V42.41H98.2198V44.1433H102.339V44.7932H97.3527ZM111.01 40.2435H107.541V43.9266H111.01V42.6267L111.877 42.8433V43.4933C111.877 43.9266 111.877 44.3599 111.66 44.3599C111.443 44.5766 111.226 44.5766 110.793 44.5766H107.975C107.541 44.5766 107.108 44.5766 107.108 44.3599C106.891 44.1433 106.891 43.9266 106.891 43.4933V40.8934C106.891 40.4601 106.891 40.0268 107.108 40.0268C107.324 39.8102 107.541 39.8102 107.975 39.8102H110.793C111.226 39.8102 111.66 39.8102 111.66 40.0268C111.877 40.2435 111.877 40.4601 111.877 40.8934V41.3268L111.01 41.5434V40.2435ZM116.646 44.7932V39.5935H117.513V41.7601H121.632V39.5935H122.499V44.7932H121.632V42.41H117.513V44.7932H116.646ZM127.485 44.7932V39.5935H127.918L131.82 43.06L132.037 43.2766C132.037 43.4933 132.254 43.4933 132.254 43.71C132.254 43.4933 132.254 43.2766 132.254 43.2766C132.254 43.06 132.254 42.8433 132.254 42.6267V39.8102H133.121V45.0099H132.687L128.785 41.5434C128.569 41.3267 128.352 41.1101 128.352 41.1101C128.352 41.3268 128.352 41.3267 128.352 41.5434C128.352 41.7601 128.352 41.9767 128.352 42.1934V45.2265H127.485V44.7932ZM138.974 43.9266H143.31V40.2435H138.974V43.9266ZM138.107 40.8934C138.107 40.4601 138.107 40.0268 138.324 40.0268C138.54 39.8102 138.757 39.8102 139.191 39.8102H142.659C143.093 39.8102 143.526 39.8102 143.526 40.0268C143.743 40.2435 143.743 40.4601 143.743 40.8934V43.4933C143.743 43.9266 143.743 44.3599 143.526 44.3599C143.31 44.5766 143.093 44.5766 142.659 44.5766H139.191C138.757 44.5766 138.324 44.5766 138.324 44.3599C138.107 44.1433 138.107 43.9266 138.107 43.4933V40.8934ZM149.163 44.7932V39.5935H150.03V43.9266H153.932V44.5766H149.163V44.7932ZM158.701 43.9266H163.036V40.2435H158.701V43.9266ZM157.834 40.8934C157.834 40.4601 157.834 40.0268 158.05 40.0268C158.267 39.8102 158.484 39.8102 158.918 39.8102H162.386C162.82 39.8102 163.253 39.8102 163.253 40.0268C163.47 40.2435 163.47 40.4601 163.47 40.8934V43.4933C163.47 43.9266 163.47 44.3599 163.253 44.3599C163.036 44.5766 162.82 44.5766 162.386 44.5766H158.918C158.484 44.5766 158.05 44.5766 158.05 44.3599C157.834 44.1433 157.834 43.9266 157.834 43.4933V40.8934ZM173.658 40.2435H169.54V43.9266H173.658V42.41H171.491V41.7601H174.526V43.4933C174.526 43.9266 174.526 44.3599 174.309 44.3599C174.092 44.5766 173.875 44.5766 173.442 44.5766H170.19C169.756 44.5766 169.323 44.5766 169.323 44.3599C169.106 44.1433 169.106 43.9266 169.106 43.4933V40.8934C169.106 40.4601 169.106 40.0268 169.323 40.0268C169.54 39.8102 169.756 39.8102 170.19 39.8102H173.442C173.875 39.8102 174.309 39.8102 174.309 40.0268C174.526 40.2435 174.526 40.4601 174.526 40.8934V41.1101L173.658 41.3268V40.2435ZM179.511 44.7932V39.5935H180.379V44.7932H179.511ZM185.364 44.7932V39.5935H190.35V40.2435H186.232V41.7601H188.833V42.41H186.232V44.1433H190.35V44.7932H185.364ZM199.238 40.2435H195.553V41.7601H198.805C199.238 41.7601 199.672 41.7601 199.672 41.9767C199.889 42.1934 199.889 42.41 199.889 42.8433V43.4933C199.889 43.9266 199.889 44.3599 199.672 44.3599C199.455 44.5766 199.238 44.5766 198.805 44.5766H195.77C195.336 44.5766 194.903 44.5766 194.903 44.3599C194.686 44.1433 194.686 43.9266 194.686 43.4933V43.2766L195.553 43.06V43.9266H199.455V42.41H196.203C195.77 42.41 195.336 42.41 195.336 42.1934C195.119 41.9767 195.119 41.7601 195.119 41.3268V40.8934C195.119 40.4601 195.119 40.0268 195.336 40.0268C195.553 39.8102 195.77 39.8102 196.203 39.8102H199.021C199.455 39.8102 199.889 39.8102 199.889 40.0268C200.105 40.2435 200.105 40.4601 200.105 40.8934L199.455 41.1101V40.2435H199.238Z" fill="white"/>
</svg>
